<?xml version="1.0" encoding="iso-8859-1"?>
<!-- Uploaded to: SVG Repo, www.svgrepo.com, Generator: SVG Repo Mixer Tools -->
<svg height="800px" width="800px" version="1.1" id="Layer_1" xmlns="http://www.w3.org/2000/svg" xmlns:xlink="http://www.w3.org/1999/xlink" 
	 viewBox="0 0 512 512" xml:space="preserve">
<path style="fill:#D9D9DB;" d="M457.043,502.624H54.957c-25.702,0-46.539-20.836-46.539-46.539l0,0h495.163l0,0
	C503.581,481.789,482.745,502.624,457.043,502.624z"/>
<path style="fill:#E1E1E3;" d="M40.97,456.087H8.419c0,25.702,20.836,46.539,46.539,46.539h32.552
	C61.806,502.624,40.97,481.789,40.97,456.087z"/>
<g>
	<path style="fill:#C8C6CD;" d="M451.948,456.087c0,25.702-20.836,46.539-46.539,46.539h51.633
		c25.702,0,46.539-20.836,46.539-46.539H451.948z"/>
	<path style="fill:#C8C6CD;" d="M391.863,456.087c0,25.702-13.396,46.539-29.918,46.539h33.194
		c16.524,0,29.918-20.836,29.918-46.539H391.863z"/>
</g>
<path style="fill:#F09EA0;" d="M275.219,40.835c0,10.614-8.604,19.218-19.218,19.218c-10.614,0-19.218-8.604-19.218-19.218
	s19.218-31.461,19.218-31.461S275.219,30.221,275.219,40.835z"/>
<path style="fill:#D9D9DB;" d="M278.908,179.126h-45.814V96.268c0-5.028,4.076-9.102,9.102-9.102h27.608
	c5.028,0,9.102,4.076,9.102,9.102v82.857H278.908z"/>
<g>
	<path style="fill:#F9DE8F;" d="M435.202,317.605H76.797c-17.433,0-31.565,14.132-31.565,31.565v106.915h421.535V349.17
		C466.767,331.738,452.635,317.605,435.202,317.605z"/>
	<path style="fill:#F9DE8F;" d="M387.543,179.126H125.368c-15.115,0-27.369,12.254-27.369,27.369v111.111h316.913V206.495
		C414.912,191.38,402.658,179.126,387.543,179.126z"/>
</g>
<g>
	<path style="fill:#F7CF6D;" d="M435.202,317.605h-27.697c17.433,0,31.565,14.132,31.565,31.565v106.915h27.697V349.17
		C466.767,331.738,452.635,317.605,435.202,317.605z"/>
	<path style="fill:#F7CF6D;" d="M387.543,179.126h-27.688c15.115,0,27.87,12.16,27.87,27.275v111.111l27.186,0.094V206.495
		C414.912,191.38,402.658,179.126,387.543,179.126z"/>
</g>
<path style="fill:#F09EA0;" d="M387.543,179.126H125.368c-15.115,0-27.369,12.254-27.369,27.369v35.511h0.465
	c17.596-0.413,17.324-22.426,34.088-22.52c16.822-0.094,23.121,26.167,40.341,26.215c17.33,0.048,23.977-26.512,41.967-26.665
	c17.551-0.15,24.124,25.02,42.249,25.004c17.962-0.016,25.398-24.747,41.979-24.262c16.249,0.475,20.25,24.557,36.506,25.036
	c16.697,0.491,24.73-24.566,41.979-24.262c16.971,0.299,20.341,25.922,36.875,26.171l0.465-0.031v-40.196
	C414.912,191.38,402.658,179.126,387.543,179.126z"/>
<path style="fill:#EF8990;" d="M387.543,179.126h-27.688c15.115,0,27.87,12.16,27.87,27.275v17.986
	c9.159,7.222,14.12,22.145,26.721,22.335l0.465-0.031v-40.196C414.912,191.38,402.658,179.126,387.543,179.126z"/>
<path style="fill:#F09EA0;" d="M435.193,317.605H76.788c-17.433,0-31.565,14.132-31.565,31.565v32.93
	c17.127-0.787,17.019-22.398,33.634-22.491c16.822-0.094,23.122,26.167,40.341,26.215c17.33,0.048,23.977-26.512,41.967-26.665
	c17.551-0.15,24.124,25.02,42.249,25.004c17.962-0.016,25.398-24.747,41.979-24.262c16.249,0.475,20.25,24.557,36.506,25.036
	c16.697,0.491,24.73-24.566,41.979-24.262c16.971,0.299,20.994,23.24,37.526,23.489c17.962-0.016,25.398-24.747,41.979-24.262
	c16.249,0.475,20.25,24.557,36.506,25.035c10.819,0.318,18.001-10.091,26.409-17.376l0.457-0.237v-18.153
	C466.758,331.738,452.626,317.605,435.193,317.605z"/>
<path style="fill:#EF8990;" d="M435.202,317.605h-27.697c17.433,0,31.565,14.132,31.565,31.565v35.715
	c0.274,0.022,0.549,0.044,0.831,0.052c10.819,0.318,18.001-10.091,26.409-17.376l0.457-0.237v-18.153
	C466.767,331.738,452.635,317.605,435.202,317.605z"/>
<path d="M503.581,447.667h-28.396V349.17c0-22.047-17.936-39.983-39.983-39.983h-12.327V206.495
	c0-19.733-16.055-35.788-35.788-35.788h-99.762V88.151c0-4.649-3.769-8.419-8.418-8.419h-14.489V67.156
	c11.134-3.569,19.218-14.017,19.218-26.321c0-12.899-16.416-31.709-21.447-37.166c-1.594-1.73-3.838-2.713-6.189-2.713
	c-2.352,0-4.595,0.983-6.189,2.713c-5.031,5.457-21.447,24.267-21.447,37.166c0,12.303,8.084,22.751,19.218,26.321v12.577h-14.489
	c-4.649,0-8.419,3.769-8.419,8.419v82.556h-99.762c-19.733,0-35.788,16.055-35.788,35.788v74.069c0,4.649,3.769,8.419,8.419,8.419
	c4.649,0,8.419-3.769,8.419-8.419v-74.069c0-10.449,8.502-18.951,18.951-18.951h108.18h45.814h108.18
	c10.449,0,18.951,8.502,18.951,18.951v102.692H97.544H76.797c-22.048,0-39.983,17.936-39.983,39.983v69.082
	c0,4.649,3.769,8.418,8.419,8.418s8.419-3.769,8.419-8.418v-69.082c0-12.764,10.383-23.146,23.146-23.146h20.745h316.913h20.745
	c12.764,0,23.146,10.383,23.146,23.146v98.497H45.232H8.419c-4.649,0-8.419,3.769-8.419,8.418c0,30.303,24.654,54.957,54.957,54.957
	h402.086c30.303,0,54.957-24.654,54.957-54.957C512,451.436,508.231,447.667,503.581,447.667z M256,22.369
	c6.135,7.8,10.799,15.569,10.799,18.466c0,5.955-4.845,10.799-10.799,10.799s-10.799-4.845-10.799-10.799
	C245.201,37.937,249.865,30.169,256,22.369z M241.511,170.707V96.569h28.976v74.138H241.511z M457.043,494.206H54.957
	c-18.128,0-33.341-12.719-37.183-29.702h27.459h421.534h27.459C490.384,481.487,475.171,494.206,457.043,494.206z"/>
<path d="M132.636,227.905c4.245,0,7.964,3.839,13.574,10.15c6.348,7.142,14.246,16.03,26.659,16.066c0.024,0,0.047,0,0.072,0
	c12.292,0,20.325-8.795,26.781-15.864c6.112-6.692,10.186-10.759,15.209-10.803c4.884-0.019,8.76,3.693,14.69,9.788
	c6.597,6.78,14.804,15.216,27.468,15.216c0.008,0,0.018,0,0.026,0c12.555-0.011,20.93-8.316,27.659-14.989
	c5.804-5.755,9.664-9.279,13.849-9.279c0.073,0,0.146,0.001,0.218,0.002c4.098,0.12,7.23,3.672,12,9.457
	c5.595,6.784,12.558,15.227,24.505,15.578c11.925,0.378,20.186-7.82,26.843-14.384c6.288-6.201,10.445-9.985,15.235-9.874
	c4.69,0.064,8.485-3.62,8.566-8.269s-3.62-8.484-8.269-8.566c-12.217-0.199-20.606,8.066-27.355,14.721
	c-6.11,6.024-10.159,9.661-14.526,9.543c-4.103-0.12-7.237-3.674-12.009-9.461c-5.593-6.783-12.556-15.224-24.498-15.574
	c-11.793-0.351-19.563,7.357-26.415,14.151c-6.339,6.286-10.567,10.102-15.818,10.108c-0.003,0-0.006,0-0.009,0
	c-5.18,0-9.276-3.824-15.401-10.121c-6.456-6.636-14.481-14.884-26.671-14.884c-0.076,0-0.155,0-0.231,0.001
	c-12.725,0.109-20.916,9.077-27.498,16.284c-5.897,6.458-9.809,10.382-14.351,10.382c-0.008,0-0.015,0-0.022,0
	c-4.549-0.012-8.369-3.943-14.121-10.413c-6.26-7.043-14.043-15.802-26.151-15.802c-0.046,0-0.093,0-0.14,0
	c-4.649,0.026-8.397,3.816-8.371,8.466c0.026,4.634,3.789,8.371,8.417,8.371C132.578,227.905,132.607,227.905,132.636,227.905z"/>
<path d="M73.119,368.981c4.69-0.067,8.578,3.995,14.465,10.619c6.387,7.186,14.336,16.131,26.684,16.166c0.026,0,0.048,0,0.074,0
	c12.229-0.001,19.977-8.482,26.812-15.967c6.38-6.986,10.645-11.231,16.079-11.277c0.029,0,0.058,0,0.088,0
	c5.138,0,9.275,3.869,15.459,10.225c6.643,6.827,14.907,15.322,27.533,15.322c0.008,0,0.017,0,0.026,0
	c12.523-0.011,20.959-8.377,27.738-15.099c6.172-6.121,10.229-9.817,14.914-9.693c4.506,0.132,7.803,3.86,12.811,9.93
	c5.621,6.817,12.617,15.299,24.487,15.647c11.856,0.368,19.833-7.532,26.883-14.483c5.658-5.581,10.529-10.432,16.1-10.302
	c5.034,0.089,8.49,3.67,13.713,9.506c5.707,6.378,12.809,14.315,24.647,14.492c0.042,0,0.083,0.001,0.126,0.001
	c12.522-0.011,20.959-8.377,27.738-15.099c6.174-6.121,10.244-9.802,14.914-9.693c4.345,0.134,7.961-3.288,8.087-7.627
	c0.127-4.339-3.288-7.961-7.627-8.087c-11.741-0.365-19.55,7.405-26.444,14.243c-5.682,5.634-10.59,10.503-16.62,10.541
	c-4.681-0.101-8.035-3.589-13.106-9.256c-5.792-6.472-12.999-14.528-25.151-14.741c-0.154-0.002-0.306-0.004-0.459-0.004
	c-11.916,0-20.247,8.214-26.956,14.831c-5.503,5.427-10.25,10.098-15.383,9.963c-4.511-0.132-7.81-3.861-12.819-9.935
	c-5.62-6.815-12.614-15.296-24.48-15.643c-11.731-0.365-19.55,7.405-26.444,14.243c-5.701,5.654-10.624,10.535-16.682,10.541
	c-0.003,0-0.007,0-0.011,0c-5.583,0-9.871-3.991-16.266-10.564c-6.499-6.68-14.576-14.983-26.72-14.983
	c-0.075,0-0.153,0-0.228,0.001c-12.678,0.108-20.926,9.139-27.553,16.396c-6.162,6.747-10.264,10.848-15.209,10.848
	c-0.008,0-0.017,0-0.025,0c-4.957-0.013-8.965-4.123-14.977-10.888c-6.321-7.113-14.163-15.929-26.305-15.896
	c-4.342,0.025-7.84,3.564-7.817,7.904c0.025,4.326,3.539,7.817,7.86,7.817C73.088,368.981,73.104,368.981,73.119,368.981z"/>
</svg>